# xmcd
#
# Track frame offsets:
# 150
# 16897
# 32070
# 47250
# 63456
# 78081
# 95440
# 108412
# 119137
# 134299
# 150959
# 168021
# 184373
# 198761
# 217873
# 234861
# 248818
# 264718
# 280664
# 294190
# 304644
# 317605
# 334392
#
# Disc length: 4627 seconds
#
#
# Revision: 0
# Processed by: cddbd v1.5.2PL0 Copyright (c) Steve Scherf et al.
# Submitted via: FreeRIP 2.951 
#
DISCID=2d121117
DTITLE=Valsas
DYEAR=1900
DGENRE=
TTITLE0=Fui Apenas um Cliente - Champion
TTITLE1=Canção dos Namorados - Musical Calmon
TTITLE2=Tome Um Copo de Cerveja - San Marino
TTITLE3=Falsidade de Mulher - San Francisco
TTITLE4=Juras de Amor - Musical JM
TTITLE5=Caixa Postal - Banda Legal
TTITLE6=Vou Pedir Perdão a Ela - San Marino
TTITLE7=Miramar Show
TTITLE8=Do Outro Lado da Cidade - Guilherme e Santiago
TTITLE9=O Dia Mais Triste - Corpo and Alma
TTITLE10=Coração Machucado - Os 4 Gaudérios
TTITLE11=Foto 3x4 - San Marino
TTITLE12=Cabelos Compridos - Os Filhos do Rio Grande
TTITLE13=Decida - Milionário e José Rico
TTITLE14=Amar e Sorrir - Musical Calmon
TTITLE15=99 e Alguma Coisa - Terceira Dimensão
TTITLE16=Amigo Ela Te Ama - Musical JM
TTITLE17=A Força do Amor - San Marino
TTITLE18=Assino Com X - Banda Céu e Cantos
TTITLE19=Tentando de Esquecer - Banda Anuska
TTITLE20=Amor e Castigo - Som Sete
TTITLE21=Volta Logo - Alma Gêmea
TTITLE22=Peito Apaixonado - San Marino
EXTD=
EXTT0=
EXTT1=
EXTT2=
EXTT3=
EXTT4=
EXTT5=
EXTT6=
EXTT7=
EXTT8=
EXTT9=
EXTT10=
EXTT11=
EXTT12=
EXTT13=
EXTT14=
EXTT15=
EXTT16=
EXTT17=
EXTT18=
EXTT19=
EXTT20=
EXTT21=
EXTT22=
PLAYORDER=
